<svg xmlns="http://www.w3.org/2000/svg" viewBox="0 0 68.03 92.08">
    <g>
        <g><path d="M34,0A34.06,34.06,0,0,0,0,34c0,6.17,2.77,12.81,2.89,13.09a54.19,54.19,0,0,0,3.93,7.36L30.14,89.8a4.44,4.44,0,0,0,7.75,0L61.22,54.47a56.51,56.51,0,0,0,3.93-7.36C65.26,46.83,68,40.19,68,34A34.05,34.05,0,0,0,34,0ZM61.46,45.56a49.61,49.61,0,0,1-3.59,6.7L34.55,87.6c-.46.7-.61.7-1.07,0L10.16,52.26a49.55,49.55,0,0,1-3.58-6.7C6.54,45.48,4,39.36,4,34a30,30,0,1,1,60,0C64,39.37,61.48,45.5,61.46,45.56Z"/><path d="M34,16A18,18,0,1,0,52,34,18,18,0,0,0,34,16Zm0,32A14,14,0,1,1,48,34,14,14,0,0,1,34,48Z"/></g></g></svg>