<svg xmlns="http://www.w3.org/2000/svg" viewBox="0 0 73.05 73.05"><defs><style>.cls-1{fill:#fff;}</style></defs><title>ic_big_logo</title><g id="Слой_2" data-name="Слой 2"><g id="Слой_1-2" data-name="Слой 1"><path class="cls-1" d="M36.52,0A36.53,36.53,0,1,0,73.05,36.52,36.56,36.56,0,0,0,36.52,0Zm0,71.47A35,35,0,1,1,71.47,36.52,35,35,0,0,1,36.52,71.47Z"/><path class="cls-1" d="M36.52,2.31A34.21,34.21,0,0,0,36,70.73V58.61l-6.65-6.55,6.44-6.61h0l-5.75-6L23.53,46l-18-18.19L19.34,14h3.23l5.09,5.22,5-4.69h7.87l4.66,4.78L50.56,14h3.19L67.57,27.86,49.46,46.33l-6.37-6.64-5.82,5.76L43.78,52l-6.73,6.65V70.73a34.21,34.21,0,0,0-.53-68.42ZM23.6,48.05,30,41.62l3.86,3.86L27.41,52l7.1,7.14v9.28c0,.34-.42.54-.91.66A32.62,32.62,0,0,1,4.72,29.18Zm31.15-34.9H49.66l-4.33,4.3-4.28-4.3H32l-4.27,4.3-4.34-4.3H18.3L5.69,25.83a32.63,32.63,0,0,1,61.67,0ZM39.44,69c-.48-.12-.9-.32-.9-.66V59.09L45.63,52,39.2,45.48l3.86-3.86,6.38,6.43L68.32,29.18a32.33,32.33,0,0,1,.85,7.34A32.68,32.68,0,0,1,39.44,69Z"/><path class="cls-1" d="M36.52,57.65,42.29,52l-5.76-5.77L30.83,52Zm.11-9.6,3.76,4-3.87,3.71-3.86-3.71Z"/><path class="cls-1" d="M36.53,44.69l16.26-16-7.6-7.8-8.66,8.59-8.88-8.7-7.48,7.48,10.26,10.1h0l.35.35h0ZM22.06,28.46l5.67-5.79,8.79,8.8,8.79-8.8L51,28.46,36.52,42.84Z"/><path class="cls-1" d="M43.84,39l5.63,5.86L66.09,27.87,53.32,15.09H51l-5.05,5,8.33,8.56Zm4.08-18.9,4.19-4.19L64.28,28,49.55,42.75,45.71,39,56.26,28.44Z"/><path class="cls-1" d="M40.1,15.62h-7L28.4,20l8.12,8,7.94-7.87ZM30.33,20l2.78-2.84h6.83L42.72,20l-6.2,6.14Z"/><path class="cls-1" d="M26.91,20l-4.78-4.9H19.77L7,27.82l16.49,16.7,5.78-5.84L18.68,28.21Zm.43,19-3.85,3.78L8.77,28,20.94,15.87l4.19,4.19-8.34,8.38Z"/></g></g></svg>