<svg xmlns="http://www.w3.org/2000/svg" viewBox="0 0 341.26 84.07">
    <g>
        <g>
            <path d="M91.8,75.48v-.59l1.83-.27c.29,0,.33-.26.33-.44V66.71H87.69v7.47c0,.18,0,.41.34.44l1.83.27v.59H81.79v-.59L84,74.62c.29,0,.33-.26.33-.44V59.55c0-.19,0-.41-.33-.45l-2.21-.26v-.6h8.07v.6L88,59.1c-.3,0-.34.26-.34.45v6.34H94V59.55c0-.19,0-.41-.33-.45l-1.83-.26v-.6h8.06v.6l-2.2.26c-.3,0-.34.26-.34.45V74.18c0,.18,0,.41.34.44l2.2.27v.59Z"/><path class="cls-1" d="M112.14,60.78c0-1.2-1.46-2.09-3-2.09a3.11,3.11,0,0,0-1.83.52,7.21,7.21,0,0,1,.15,1.46c0,2.09-1.19,2.72-2.09,2.72a1.7,1.7,0,0,1-1.79-1.79c0-1.94,2-3.73,5.75-3.73a6.28,6.28,0,0,1,3.25.78,7.56,7.56,0,0,1,2.27,1.94,3.44,3.44,0,0,1,.64,2.17V73.84c0,.6.07.82.78.9l1.76.15v.59h-3.66a2,2,0,0,1-1.53-.52,2,2,0,0,1-.64-1.38h-.33a6.93,6.93,0,0,1-5,2.28,4.18,4.18,0,0,1-4.48-4.15,4.06,4.06,0,0,1,1.9-3.43,23,23,0,0,1,4.44-2.09c1-.41,1.91-.75,3.4-1.49Zm0,5a13,13,0,0,0-3.73,1.75c-2.36,1.68-2.65,3.21-2.65,4.33a2.48,2.48,0,0,0,2.42,2.76c1.31,0,3.06-1.23,4-2.76Z"/><path class="cls-1" d="M136.85,48.69H147.6v.74l-2.32.19c-.56,0-1,.11-1,.74v2a7.24,7.24,0,0,1,2.83-.6c4,0,8.77,3.25,8.77,10.08,0,7.24-4.7,10.07-8.88,10.07a6,6,0,0,1-2.72-.59V73.8c0,.64.48.71,1,.75l2.32.19v.74H136.85v-.74l2.31-.19c.56,0,1.05-.11,1.05-.75V71.27a6,6,0,0,1-2.73.59c-5.37,0-8.88-4.62-8.88-10.07,0-6.87,4.74-10.08,8.73-10.08a7.36,7.36,0,0,1,2.88.6v-2c0-.63-.49-.7-1.05-.74l-2.31-.19Zm3.36,4.74a3.47,3.47,0,0,0-2.24-.79,4.65,4.65,0,0,0-4.15,2.8,13,13,0,0,0-1.19,6.38,13,13,0,0,0,1.19,6.38A4.65,4.65,0,0,0,138,71a3.48,3.48,0,0,0,2.24-.78Zm4,16.79a3.45,3.45,0,0,0,2.24.78,4.63,4.63,0,0,0,4.14-2.8,13,13,0,0,0,1.19-6.38,13,13,0,0,0-1.19-6.38,4.63,4.63,0,0,0-4.14-2.8,3.45,3.45,0,0,0-2.24.79Z"/><path class="cls-1" d="M164.47,59.51a4.13,4.13,0,0,1,3.66-1.64c2.91,0,7,2.54,7,9.07a10.81,10.81,0,0,1-1.08,5c-1.08,2.17-3,4-5.49,4a5.75,5.75,0,0,1-4.21-1.72v8.62c0,.19,0,.41.33.45l2.58.26v.6h-8.81v-.6l2.2-.26c.3,0,.34-.26.34-.45v-23a.79.79,0,0,0-.38-.71,3.06,3.06,0,0,0-1-.19l-1.12.08v-.6l1.08,0c1.12,0,1.72-.07,2.2-.07.82,0,2.06,0,2.5,1.27Zm-.11,11.9c.11,1.91,1.64,3.62,3.32,3.62.89,0,2.61-.33,3.39-3.13a18.57,18.57,0,0,0,.49-5,14.53,14.53,0,0,0-.78-5.64,4,4,0,0,0-3.33-2.61,3.48,3.48,0,0,0-3.09,2.61Z"/><path class="cls-1" d="M184.59,58.24v.6l-1.46.15c-.41,0-.93.15-.93.74a1.85,1.85,0,0,0,.11.53l3.84,12.24h.26l3.07-10.6a9.83,9.83,0,0,0,.26-1.72c0-.52-.23-1.12-1.57-1.27l-.67-.07v-.6h6v.6l-.67.11c-1.08.19-1.19.22-1.9,2.35l-5.19,15.53a23,23,0,0,1-2.61,5.41,4.06,4.06,0,0,1-3.25,1.83c-.86,0-2.35-.38-2.35-1.91a2,2,0,0,1,2.16-1.94,3.43,3.43,0,0,1,1.76.49c.52.33.78.67,1.08.67.71,0,1.72-2.24,1.72-3.84a2.77,2.77,0,0,0-.19-1.09L178.69,59.7c-.11-.38-.3-.68-.71-.71l-1.64-.15v-.6Z"/><path class="cls-1" d="M204.67,75.48v-.59l1.83-.27c.29,0,.33-.26.33-.44V66.71h-6.27v7.47c0,.18,0,.41.34.44l1.83.27v.59h-8.07v-.59l2.21-.27c.29,0,.33-.26.33-.44V59.55c0-.19,0-.41-.33-.45l-2.21-.26v-.6h8.07v.6l-1.83.26c-.3,0-.34.26-.34.45v6.34h6.27V59.55c0-.19,0-.41-.33-.45l-1.83-.26v-.6h8.06v.6l-2.2.26c-.3,0-.34.26-.34.45V74.18c0,.18,0,.41.34.44l2.2.27v.59Z"/><path class="cls-1" d="M220.38,65.82c1.46,0,3.51-.6,3.51-3.62s-1.38-3.51-2.54-3.51c-2.39,0-3.84,3.39-4.29,5.45h-.67l.29-5.45a17.31,17.31,0,0,1,5.16-.82c4,0,5.48,1.9,5.48,4.14a4,4,0,0,1-3.58,4v.45c4.07.6,4.14,3.32,4.14,4.18a4.87,4.87,0,0,1-1.27,3.4c-.74.82-2.24,1.83-5.11,1.83-3.92,0-5.93-2.39-5.93-4.3a1.77,1.77,0,0,1,1.82-1.9,2.24,2.24,0,0,1,2.13,2.46,3.57,3.57,0,0,1-.6,2,3,3,0,0,0,2.28.89c.75,0,3.14-.22,3.14-4.4,0-1.6-.15-4-4-4H219v-.85Z"/><path class="cls-1" d="M234.71,66.94a14.28,14.28,0,0,0,.64,4.89c.93,2.53,2.57,3.13,3.77,3.13a3.11,3.11,0,0,0,2.54-1.23,7.66,7.66,0,0,0,1.67-4.11c0-.33.08-1,.68-1s.93.59.93,1.3a8.35,8.35,0,0,1-2,4.11,5.44,5.44,0,0,1-4.25,1.83,7.23,7.23,0,0,1-6.5-4.07A11.22,11.22,0,0,1,231,66.67a11.35,11.35,0,0,1,.86-4.36,7.15,7.15,0,0,1,6.83-4.44c4.25,0,6.08,3.73,6.08,6.9v.45h-10C234.71,65.85,234.71,66.41,234.71,66.94Zm7.09-2.54v-.23a8.94,8.94,0,0,0-.85-4,2.83,2.83,0,0,0-2.51-1.53c-3.17,0-3.58,4.59-3.61,5.71Z"/><path class="cls-1" d="M257.63,75.48v-.59l1.83-.27c.3,0,.33-.26.33-.44V66.71h-6.27v7.47c0,.18,0,.41.34.44l1.83.27v.59h-8.06v-.59l2.2-.27c.3,0,.33-.26.33-.44V59.55c0-.19,0-.41-.33-.45l-2.2-.26v-.6h8.06v.6l-1.83.26c-.3,0-.34.26-.34.45v6.34h6.27V59.55c0-.19,0-.41-.33-.45l-1.83-.26v-.6h8.06v.6l-2.2.26c-.3,0-.34.26-.34.45V74.18c0,.18,0,.41.34.44l2.2.27v.59Z"/><path class="cls-1" d="M276.44,58.69c-.89,0-2.91.22-3.81,3.84a20.56,20.56,0,0,0-.44,4.56c0,6.68,2.72,7.91,4.55,7.91A3.68,3.68,0,0,0,280,72.61a6.5,6.5,0,0,0,.56-2.43c0-.56.11-1.49.86-1.49.33,0,.89.26.89,1.34a6.72,6.72,0,0,1-2,4.15,5.66,5.66,0,0,1-4.18,1.68,7.52,7.52,0,0,1-5.82-2.77,9.45,9.45,0,0,1-1.94-6,10.45,10.45,0,0,1,1.9-6.12,7.29,7.29,0,0,1,6.24-3.06,6.37,6.37,0,0,1,3.13.71,3.21,3.21,0,0,1,1.83,2.79c0,1.39-.75,2.21-1.75,2.21A2.33,2.33,0,0,1,277.49,61a3.68,3.68,0,0,1,.48-2A3,3,0,0,0,276.44,58.69Z"/><path class="cls-1" d="M287.12,74.85c.29,0,.33-.26.33-.45V59.55c0-.19,0-.41-.33-.45l-2.21-.26v-.6h8.44v.6l-2.2.26c-.3,0-.34.26-.34.45v6.53h.93A3,3,0,0,0,294.17,65a7.12,7.12,0,0,0,1.05-2.65,8.92,8.92,0,0,1,1.15-3,3.11,3.11,0,0,1,2.76-1.49c.53,0,2.09.15,2.09,1.75a1.89,1.89,0,0,1-1.94,2,3.39,3.39,0,0,1-2.24-.93c-.41.18-.44.44-.48.89a6.38,6.38,0,0,1-.9,2.91,4.84,4.84,0,0,1-1.75,1.76v.33c3.81.53,4.66,2.28,5.15,3.88s.45,2.65.9,3.29a2.26,2.26,0,0,0,1.67.86h.53l.11.89H301a5.77,5.77,0,0,1-2.8-.56,4,4,0,0,1-2-2.24c-.3-.71-.41-1.34-.86-2.83-.37-1.2-.93-2.95-3.47-2.95h-1.08v7.28c0,.18,0,.41.34.44l1.83.27v.59h-8.07v-.59Z"/><path class="cls-1" d="M320,66.86c0,5.75-4.37,9-7.92,9s-7.91-3.25-7.91-9,4.37-9,7.91-9S320,61.11,320,66.86Zm-4.52,4.89a17.19,17.19,0,0,0,0-9.78c-.9-2.57-2.46-3.28-3.4-3.28s-2.5.71-3.39,3.28a14.85,14.85,0,0,0-.71,4.89,14.85,14.85,0,0,0,.71,4.89c.89,2.58,2.46,3.28,3.39,3.28S314.62,74.33,315.52,71.75Z"/><path class="cls-1" d="M324.7,74.74c.19,0,.56-.12.56-.86V59.55a.66.66,0,0,0-.45-.49l-2.05-.22v-.6h3.51c2.13,0,2.35,1.34,2.35,2.17V71.53h.26l5.71-10.3c1.57-2.8,2.39-3,4.07-3H341v.6l-2,.26c-.49.07-.52.56-.52.82V74.18c0,.18,0,.41.33.44l2.2.27v.59h-8.43v-.59l2.2-.27c.3,0,.34-.26.34-.44V62.61h-.3l-5.56,10.11c-1.46,2.61-1.87,2.76-3.14,2.76h-3.36v-.59Zm5.45-15.31a7.41,7.41,0,0,1-.78-3.17,5.46,5.46,0,0,1,1.3-3.54c1.09-1.31,2.8-2.13,4.52-3.1A2.71,2.71,0,0,0,337,47.23a2.12,2.12,0,0,0-.19-1l.79-.26a4.12,4.12,0,0,1,.29,1.68,6.34,6.34,0,0,1-2.76,5.52,16.28,16.28,0,0,1-1.83,1.12c-.56.34-1.12.64-1.68,1a2.29,2.29,0,0,0-1.23,2,5.58,5.58,0,0,0,.38,1.64Z"/><path class="cls-1" d="M91,15c0-.81,0-1.66.11-2.56a6,6,0,0,1,.7-2.45,4.79,4.79,0,0,1,2-1.85,8,8,0,0,1,3.77-.73,9.2,9.2,0,0,1,3.82.63,4.47,4.47,0,0,1,2,1.67,5.33,5.33,0,0,1,.73,2.4,27.38,27.38,0,0,1,0,2.89q0,3.84,0,6.75c0,1.94,0,3.63,0,5.06s0,2.64,0,3.62,0,1.77,0,2.38c0,1.45,0,2.26,0,2.43,0,1.28,0,2.4-.1,3.34a4.77,4.77,0,0,1-.73,2.35,3.82,3.82,0,0,1-2,1.42,12.3,12.3,0,0,1-3.9.48,11.66,11.66,0,0,1-3.77-.48,3.7,3.7,0,0,1-2-1.44,5,5,0,0,1-.7-2.36c-.07-.92-.11-2-.11-3.31v-9H88.09V42.24h1v.61H82.67v-.61h1.27V8H82.67v-.6H89.1V8H88l0,17.67H91Zm3.9,20.24c0,1.11,0,2.1,0,3a10.45,10.45,0,0,0,.28,2.18A2.69,2.69,0,0,0,96,41.76a2.22,2.22,0,0,0,1.54.48,2.18,2.18,0,0,0,1.5-.48,2.86,2.86,0,0,0,.78-1.36,8.76,8.76,0,0,0,.28-2.18c0-.86,0-1.85,0-3V31.82c0-1.42,0-3.45,0-6.1s0-6.22-.08-10.7c0-.88,0-1.73,0-2.56a11.11,11.11,0,0,0-.28-2.22A3.67,3.67,0,0,0,99,8.64,1.86,1.86,0,0,0,97.55,8,1.82,1.82,0,0,0,96,8.72a4.25,4.25,0,0,0-.76,1.72A12.92,12.92,0,0,0,95,12.71c0,.83,0,1.6,0,2.31v4.86q0,2.48,0,6.3T94.92,35.26Z"/><path class="cls-1" d="M108.23,7.43h5.36a12.72,12.72,0,0,1,3.88.48,5.16,5.16,0,0,1,2.2,1.31,4.08,4.08,0,0,1,1,1.9,9.9,9.9,0,0,1,.23,2.18c0,.87,0,1.66,0,2.35a4.62,4.62,0,0,1-.4,1.77,2.62,2.62,0,0,1-1.07,1.14,4.1,4.1,0,0,1-2,.4,4.3,4.3,0,0,1,2.83.84,4.64,4.64,0,0,1,1.47,2.3,13.91,13.91,0,0,1,.53,3.54c0,1.39.08,2.91.08,4.56a47.38,47.38,0,0,1-.43,7.26,8.18,8.18,0,0,1-1.42,3.77,3.88,3.88,0,0,1-2.63,1.42,36,36,0,0,1-4.13.2h-5.41v-.71h1.27v-34h-1.27Zm5.36,12.19a.89.89,0,0,1,.41-.71,2.6,2.6,0,0,1,1.47-.3,7.36,7.36,0,0,0,1.41-.1,1.11,1.11,0,0,0,.76-.53,3,3,0,0,0,.31-1.29c0-.58,0-1.37,0-2.38a17.78,17.78,0,0,0-.28-3.57,3.86,3.86,0,0,0-.84-1.82,2.15,2.15,0,0,0-1.36-.68,15.33,15.33,0,0,0-1.93-.1Zm0,22.52a10.35,10.35,0,0,0,2-.18,2.17,2.17,0,0,0,1.47-1.29,11.17,11.17,0,0,0,.89-3.54,60.5,60.5,0,0,0,.3-6.93c0-2.26,0-4.09-.1-5.49a14.35,14.35,0,0,0-.46-3.29,2.91,2.91,0,0,0-1-1.62,2.61,2.61,0,0,0-1.57-.43,1.52,1.52,0,0,0-1.29.51,2.5,2.5,0,0,0-.38,1.51Z"/><path class="cls-1" d="M139,7.43V9.65h-.66V8h-6.43L132,24.58a.88.88,0,0,1,.41-.78,2.72,2.72,0,0,1,1.47-.28h2.43V22.46h.65v2.68h-.65v-1h-2.64a1.55,1.55,0,0,0-1.29.5A2.56,2.56,0,0,0,132,26.2v16h6.38V40.62H139v2.23H126.55v-.61h1.26V8h-1.26v-.6Z"/><path class="cls-1" d="M150.59,7.43l6.32,34.91h1v.51h-7.23v-.51H152L147,9.91l-4.3,32.43h.86v.51h-2.15c-.22,0-.33,0-.33-.05v-.46h.81s.07-.54.21-1.54.31-2.29.53-3.9.46-3.43.73-5.49.54-4.15.81-6.27q1-7.55,2.18-17.11h-1.27v-.6Z"/><path class="cls-1" d="M173.66,15.52q-.66,1.88-1.14,3.42c-.32,1-.69,2.2-1.11,3.52s-.85,2.65-1.29,4q-1.58,4.82-3.54,10.88v4.91h1v.61h-6.43v-.61h1.27V8h-1.27v-.6h6.43V8h-1.06l.05,27.33c.44-1.25.82-2.39,1.16-3.41s.72-2.2,1.14-3.5.85-2.64,1.29-4q1.58-4.8,3.49-10.88V8H172.4v-.6h6.42V8h-1.06l.05,34.21h1v.61H172.4v-.61h1.26Z"/><path class="cls-1" d="M188.49,7.43c1.62,0,3,.06,4.1.17a4.27,4.27,0,0,1,2.68,1.22,6.26,6.26,0,0,1,1.42,3.29,38.54,38.54,0,0,1,.4,6.4q0,4.6-.18,7.13a9.47,9.47,0,0,1-.83,3.75A2.78,2.78,0,0,1,194,30.86a22.39,22.39,0,0,1-3.82.25,1.5,1.5,0,0,0-1.29.51,2.5,2.5,0,0,0-.38,1.51v9.11h1v.61h-6.42v-.61h1.26V8h-1.26v-.6Zm0,.6,0,23.38a.88.88,0,0,1,.4-.71,2.6,2.6,0,0,1,1.47-.3,3.23,3.23,0,0,0,1.52-.3,2.16,2.16,0,0,0,.83-1.49,19.27,19.27,0,0,0,.36-3.57c0-1.59.08-3.76.08-6.53a40.25,40.25,0,0,0-.36-6.23,8.25,8.25,0,0,0-1-3.08,2.08,2.08,0,0,0-1.51-1.06A15.72,15.72,0,0,0,188.49,8Z"/><path class="cls-1" d="M212.78,26.05h-3.7c-.2,0-.48,0-.83.05a4.22,4.22,0,0,0-1,.23,2.75,2.75,0,0,0-.86.48,1,1,0,0,0-.35.81V42.24h1v.61h-6.43v-.61h1.27V8h-1.27v-.6H207V8H206L206,26.25c0-.13.1-.25.3-.35a3.75,3.75,0,0,1,.81-.28,8.65,8.65,0,0,1,1.06-.2,8.32,8.32,0,0,1,1.12-.08h3.49V8h-1.27v-.6h6.43V8h-1.06l.05,34.21h1v.61h-6.43v-.61h1.27Z"/><path class="cls-1" d="M221.74,42.85v-.61H223V8h-1.26v-.6h6.42V8h-1v9.11a2.54,2.54,0,0,0,.38,1.52,1.5,1.5,0,0,0,1.29.51,22.39,22.39,0,0,1,3.82.25,2.78,2.78,0,0,1,2.05,1.47,9.61,9.61,0,0,1,.84,3.74q.16,2.54.17,7.14a38.62,38.62,0,0,1-.4,6.4,6.18,6.18,0,0,1-1.42,3.29,4.19,4.19,0,0,1-2.68,1.21,39.16,39.16,0,0,1-4.1.18Zm5.36-.61a15.77,15.77,0,0,0,1.85-.1,2.14,2.14,0,0,0,1.52-1.06,8.27,8.27,0,0,0,1-3.09,40.11,40.11,0,0,0,.36-6.22c0-2.77,0-4.94-.08-6.53a20.16,20.16,0,0,0-.35-3.57,2.2,2.2,0,0,0-.84-1.49,3.23,3.23,0,0,0-1.52-.3,2.57,2.57,0,0,1-1.46-.31.88.88,0,0,1-.41-.71ZM237.07,8v-.6h6.43V8h-1.07l0,34.21h1v.61h-6.43v-.61h1.26V8Z"/><path class="cls-1" d="M260.65,15.52q-.66,1.88-1.14,3.42c-.32,1-.69,2.2-1.11,3.52s-.85,2.65-1.29,4q-1.58,4.82-3.54,10.88v4.91h1v.61h-6.43v-.61h1.27V8h-1.27v-.6h6.43V8h-1.06l0,27.33c.43-1.25.82-2.39,1.16-3.41s.72-2.2,1.14-3.5.85-2.64,1.29-4q1.56-4.8,3.49-10.88V8h-1.26v-.6h6.42V8h-1.06l.05,34.21h1v.61h-6.42v-.61h1.26Zm-3.54-11a6.41,6.41,0,0,0,2-.35c.35-.17.52-.36.5-.56a1.2,1.2,0,0,0-.35-.68,5.19,5.19,0,0,1-.58-.81,1.36,1.36,0,0,1-.2-.89c0-.3.31-.62.85-1a1.27,1.27,0,0,1,1.17-.2,1.39,1.39,0,0,1,.76.71,2.31,2.31,0,0,1,.2,1.21A2.47,2.47,0,0,1,261,3.35a3.44,3.44,0,0,1-1.39,1.09,5.66,5.66,0,0,1-2.45.46A4.56,4.56,0,0,1,253.9,4,3.09,3.09,0,0,1,252.81,2a2.06,2.06,0,0,1,.5-1.67c.41-.44.95-.45,1.62-.05q.76.51.84,1a1.29,1.29,0,0,1-.18.89A4.3,4.3,0,0,1,255,3a1.09,1.09,0,0,0-.35.68c0,.2.17.39.5.56A6.13,6.13,0,0,0,257.11,4.54Z"/><path class="cls-1" d="M296.93,7.43v11c0,2.08,0,4.19,0,6.35s0,4.28,0,6.35V42.24h2.83V45h-.61V42.85H280.94V45h-.61V42.24h2.43a28.77,28.77,0,0,0,2.18-5.36,48.33,48.33,0,0,0,1.54-6.5,51.41,51.41,0,0,0,.69-8.94v-14Zm-9.05.6V21.39a51.49,51.49,0,0,1-.69,8.94,56.84,56.84,0,0,1-1.49,6.55,28.77,28.77,0,0,1-2.18,5.36h9.31V8Z"/><path class="cls-1" d="M303.56,35.26q0-6.07,0-10t0-6.17V15c0-.81,0-1.66.1-2.56a6.11,6.11,0,0,1,.71-2.45,4.79,4.79,0,0,1,1.95-1.85,7.93,7.93,0,0,1,3.77-.73,9.23,9.23,0,0,1,3.82.63,4.47,4.47,0,0,1,2,1.67,5.33,5.33,0,0,1,.73,2.4,27.38,27.38,0,0,1,.05,2.89q0,3.84,0,6.75c0,1.94,0,3.63,0,5.06s0,2.64,0,3.62,0,1.77,0,2.38c0,1.45,0,2.26.05,2.43,0,1.28,0,2.4-.1,3.34A4.77,4.77,0,0,1,316,41a3.86,3.86,0,0,1-2,1.42,12.3,12.3,0,0,1-3.9.48,11.62,11.62,0,0,1-3.77-.48,3.7,3.7,0,0,1-1.95-1.44,5.13,5.13,0,0,1-.71-2.36C303.6,37.65,303.56,36.54,303.56,35.26Zm3.9,0c0,1.11,0,2.1.05,3a10.45,10.45,0,0,0,.28,2.18,2.62,2.62,0,0,0,.76,1.36,2.2,2.2,0,0,0,1.54.48,2.14,2.14,0,0,0,1.49-.48,2.79,2.79,0,0,0,.79-1.36,8.76,8.76,0,0,0,.28-2.18c0-.86,0-1.85,0-3V31.82q0-2.13,0-6.1T312.57,15c0-.88,0-1.73,0-2.56a11.89,11.89,0,0,0-.28-2.22,3.57,3.57,0,0,0-.76-1.6,2,2,0,0,0-3,.08,4.12,4.12,0,0,0-.76,1.72,12.92,12.92,0,0,0-.28,2.27c0,.83-.05,1.6-.05,2.31v4.86q0,2.48,0,6.3C307.42,28.72,307.42,31.75,307.46,35.26Z"/><path class="cls-1" d="M329,34.1l-6.58-22.22.15,30.36h1.16v.61h-3.28v-.61h1.26V8h-1.26v-.6h5.36L331,25.54l5.87-18.11h4.4V8H340l.05,34.21h1.21v.61h-6.83v-.61h1.47V12.84Z"/><path class="cls-1" d="M36.52,5.66A36.53,36.53,0,1,0,73.05,42.18,36.56,36.56,0,0,0,36.52,5.66Zm0,71.48a35,35,0,1,1,34.95-35A35,35,0,0,1,36.52,77.14Z"/><path class="cls-1" d="M36.52,8A34.21,34.21,0,0,0,36,76.39V64.27l-6.65-6.55,6.44-6.61h0l-5.75-6-6.51,6.6-18-18.2L19.34,19.7h3.23l5.09,5.22,5-4.69h7.87L45.21,25l5.35-5.31h3.19L67.57,33.52,49.46,52l-6.37-6.63-5.82,5.75,6.51,6.51-6.73,6.65V76.39A34.21,34.21,0,0,0,36.52,8ZM23.6,53.71,30,47.28l3.86,3.86-6.44,6.47,7.1,7.14V74c0,.34-.42.54-.91.66A32.62,32.62,0,0,1,4.72,34.84Zm31.15-34.9H49.66l-4.33,4.3-4.28-4.3H32l-4.27,4.3-4.34-4.3H18.3L5.69,31.49a32.63,32.63,0,0,1,61.67,0ZM39.44,74.69c-.48-.12-.9-.32-.9-.66V64.75l7.09-7.14L39.2,51.14l3.86-3.86,6.38,6.43L68.32,34.84a32.33,32.33,0,0,1,.85,7.34A32.68,32.68,0,0,1,39.44,74.69Z"/><path class="cls-1" d="M36.52,63.31l5.77-5.69-5.76-5.77-5.7,5.85Zm.11-9.6,3.76,4-3.87,3.71-3.86-3.71Z"/><path class="cls-1" d="M36.53,50.36,52.79,34.3l-7.6-7.8-8.66,8.59-8.88-8.7-7.48,7.48L30.43,44h0l.35.35h0ZM22.06,34.12l5.67-5.79,8.79,8.8,8.79-8.8L51,34.12,36.52,48.5Z"/><path class="cls-1" d="M43.84,44.62l5.63,5.86L66.09,33.53,53.32,20.75H51l-5.05,5,8.33,8.56Zm4.08-18.9,4.19-4.19L64.28,33.65,49.55,48.41l-3.84-3.77L56.26,34.1Z"/><path class="cls-1" d="M40.1,21.28h-7l-4.7,4.38,8.12,8,7.94-7.87Zm-9.77,4.41,2.78-2.84h6.83l2.78,2.84-6.2,6.14Z"/><path class="cls-1" d="M26.91,25.65l-4.78-4.9H19.77L7,33.48l16.49,16.7,5.78-5.84L18.68,33.88Zm.43,19-3.85,3.77L8.77,33.65,20.94,21.53l4.19,4.19L16.79,34.1Z"/>
        </g></g>
</svg>