<svg xmlns="http://www.w3.org/2000/svg" viewBox="0 0 32 32.05">
    <g>
        <g>
            <path d="M25.3,19.85A3.14,3.14,0,0,0,23,18.8a3.3,3.3,0,0,0-2.32,1L18.57,22l-.52-.28a6.84,6.84,0,0,1-.67-.35,23.28,23.28,0,0,1-5.57-5.08A13.46,13.46,0,0,1,10,13.39c.56-.5,1.07-1,1.57-1.54l.57-.57a3.11,3.11,0,0,0,0-4.69L10.27,4.75l-.62-.64c-.41-.42-.84-.86-1.28-1.26a3.19,3.19,0,0,0-2.26-1,3.32,3.32,0,0,0-2.3,1h0L1.5,5.18A5,5,0,0,0,0,8.33a12,12,0,0,0,.86,5A29.4,29.4,0,0,0,6.07,22a31.69,31.69,0,0,0,10.6,8.29A16.44,16.44,0,0,0,22.62,32l.42,0A5.09,5.09,0,0,0,27,30.37s0,0,0,0a15.21,15.21,0,0,1,1.19-1.23c.29-.28.59-.57.88-.87a3.38,3.38,0,0,0,1-2.34,3.25,3.25,0,0,0-1-2.32ZM27.72,27h0c-.26.29-.53.54-.82.83a18.7,18.7,0,0,0-1.31,1.35,3.25,3.25,0,0,1-2.54,1.08h-.31a14.71,14.71,0,0,1-5.28-1.58,30.23,30.23,0,0,1-10-7.82,27.35,27.35,0,0,1-4.87-8.11,9.66,9.66,0,0,1-.76-4.23,3.11,3.11,0,0,1,.94-2l2.3-2.31a1.57,1.57,0,0,1,1-.48,1.48,1.48,0,0,1,1,.47l0,0c.41.39.8.79,1.22,1.21L9,6l1.85,1.85a1.29,1.29,0,0,1,0,2.09l-.59.59c-.56.58-1.1,1.12-1.69,1.65l0,0a1.38,1.38,0,0,0-.35,1.53l0,.07a14.93,14.93,0,0,0,2.19,3.56h0a24.82,24.82,0,0,0,6,5.46,7.58,7.58,0,0,0,.83.45c.24.13.47.24.67.36l.08,0a1.42,1.42,0,0,0,.67.17,1.45,1.45,0,0,0,1-.47L22,21.13a1.54,1.54,0,0,1,1-.51,1.4,1.4,0,0,1,1,.5h0l3.73,3.73A1.33,1.33,0,0,1,27.72,27Z"/><path d="M17.3,7.62a8.7,8.7,0,0,1,7.08,7.09.91.91,0,0,0,.9.76h.16a.92.92,0,0,0,.75-1.06,10.53,10.53,0,0,0-8.58-8.58.91.91,0,0,0-1.05.75A.89.89,0,0,0,17.3,7.62Z"/><path d="M32,14.14A17.37,17.37,0,0,0,17.86,0a.9.9,0,0,0-1,.75.9.9,0,0,0,.75,1.05A15.49,15.49,0,0,1,30.19,14.43a.9.9,0,0,0,.9.76h.15A.9.9,0,0,0,32,14.14Z"/>
        </g></g>
</svg>