<svg xmlns="http://www.w3.org/2000/svg" viewBox="0 0 32 32"><title>ic_time</title><g id="Слой_2" data-name="Слой 2"><g id="Capa_1" data-name="Capa 1"><path d="M1.14,16A14.86,14.86,0,0,1,24.25,3.64a.58.58,0,0,0,.8-.15.59.59,0,0,0-.16-.8,16,16,0,0,0-20.2,2A15.86,15.86,0,0,0,0,16,16,16,0,0,0,4.07,26.67a.61.61,0,0,0,.43.19.55.55,0,0,0,.38-.15.57.57,0,0,0,0-.81A14.82,14.82,0,0,1,1.14,16Z"/><path d="M29.31,7.11a.59.59,0,0,0-.8-.16.58.58,0,0,0-.15.8A14.85,14.85,0,0,1,6.65,27.54a.58.58,0,0,0-.73.89A16.07,16.07,0,0,0,16,32,16,16,0,0,0,32,16,15.94,15.94,0,0,0,29.31,7.11Z"/><path d="M25.9,4.93A14.27,14.27,0,0,1,27,6a.57.57,0,0,0,.42.19.55.55,0,0,0,.38-.15.57.57,0,0,0,0-.81,16.42,16.42,0,0,0-1.18-1.18.57.57,0,0,0-.81,0A.58.58,0,0,0,25.9,4.93Z"/><path d="M16,5.14a.56.56,0,0,0,.57-.57V2.86a.57.57,0,1,0-1.14,0V4.57A.56.56,0,0,0,16,5.14Z"/><path d="M15.43,27.43v1.71a.57.57,0,0,0,1.14,0V27.43a.57.57,0,0,0-1.14,0Z"/><path d="M5.14,16a.56.56,0,0,0-.57-.57H2.86a.57.57,0,1,0,0,1.14H4.57A.56.56,0,0,0,5.14,16Z"/><path d="M26.86,16a.56.56,0,0,0,.57.57h1.71a.57.57,0,0,0,0-1.14H27.43A.56.56,0,0,0,26.86,16Z"/><path d="M10.78,5.82,9.92,4.33a.57.57,0,1,0-1,.57l.86,1.49a.59.59,0,0,0,.78.21A.57.57,0,0,0,10.78,5.82Z"/><path d="M22.21,25.61a.57.57,0,1,0-1,.57l.86,1.49a.55.55,0,0,0,.49.28.59.59,0,0,0,.29-.07.58.58,0,0,0,.21-.78Z"/><path d="M4.62,23.14a.55.55,0,0,0,.28-.07l1.49-.86a.57.57,0,0,0-.57-1l-1.49.86a.57.57,0,0,0,.29,1.06Z"/><path d="M25.9,10.86a.6.6,0,0,0,.28-.08l1.49-.86a.57.57,0,0,0-.57-1l-1.49.86a.57.57,0,0,0-.21.78A.59.59,0,0,0,25.9,10.86Z"/><path d="M22.86,4.12a.58.58,0,0,0-.78.21l-.86,1.49a.57.57,0,0,0,.21.78.59.59,0,0,0,.78-.21l.86-1.49A.58.58,0,0,0,22.86,4.12Z"/><path d="M10.57,25.4a.57.57,0,0,0-.78.21L8.93,27.1a.58.58,0,0,0,.21.78.59.59,0,0,0,.29.07.55.55,0,0,0,.49-.28l.86-1.49A.57.57,0,0,0,10.57,25.4Z"/><path d="M25.61,22.21l1.49.86a.55.55,0,0,0,.28.07.57.57,0,0,0,.29-1.06l-1.49-.86a.57.57,0,1,0-.57,1Z"/><path d="M6.39,9.79,4.9,8.93a.57.57,0,1,0-.57,1l1.49.86a.56.56,0,0,0,.78-.21A.57.57,0,0,0,6.39,9.79Z"/><path d="M20,23.46a.5.5,0,0,0,.28-.08.56.56,0,0,0,.21-.78L17.3,17.11A1.69,1.69,0,0,0,17.71,16a1.72,1.72,0,0,0-1.14-1.62V6.86a.57.57,0,1,0-1.14,0v7.52A1.72,1.72,0,0,0,14.29,16,1.7,1.7,0,0,0,16,17.71l.31,0,3.17,5.48A.57.57,0,0,0,20,23.46ZM15.43,16a.57.57,0,1,1,.57.57A.56.56,0,0,1,15.43,16Z"/></g></g></svg>